<?xml version="1.0" encoding="utf-8"?>
<!-- Generator: Adobe Illustrator 22.0.1, SVG Export Plug-In . SVG Version: 6.00 Build 0)  -->
<svg version="1.1" id="レイヤー_1" xmlns="http://www.w3.org/2000/svg" xmlns:xlink="http://www.w3.org/1999/xlink" x="0px"
	 y="0px" viewBox="0 0 1114.3 253.1" style="enable-background:new 0 0 1114.3 253.1;" xml:space="preserve">
<style type="text/css">
	.st0{fill:#FFFFFF;}
</style>
<g>
	<g>
		<path class="st0" d="M64.5,210.4c-8.8,0-10.8-5.6-15.6-19l-0.3-1c-4.7-13.3-17.6-33-38.4-58.6l-0.4-0.5c-7.2-8.8-9.8-13-9.8-19
			c0-6.9,3-14.3,19.7-35C43,48,51.3,36.2,51.3,28.4c0-4.1-1.7-7.1-5.5-12.3c-0.8-1.3-2.1-3.4-0.8-5.4C45.9,9,47.8,9,48.7,9
			C55,9,80.1,21.3,80.1,32.2c0,3.3-5.7,10-26.8,33.1c-14.6,15.9-36.5,40-36.5,44.7c0,2.9,1.1,5.8,6.4,11.4l1.1,1.2
			c22.3,24.2,52.7,57.5,52.7,74.4C77.1,206.2,70.6,210.4,64.5,210.4z"/>
	</g>
	<g>
		<path class="st0" d="M184.5,253.1c-3.5,0-8.7,0-8.7-4.3c0-2.8,3.7-3.8,7.7-4.9l0.9-0.2c30-6.7,50.1-24.9,50.1-45.2
			c0-22.2-18.3-23.9-23.9-23.9c-11.5,0-21.2,5.6-28.8,16.7l-1,1.3c-10.4,14.6-13.5,19.1-22.5,19.1c-12,0-20.3-13.1-20.3-31.9
			c0-6.7,2.4-27.4,4.4-44.1c1-8.2,1.8-15.4,2-18.3c0.8-8.8,1.9-21.8,23-30.4c13.2-5.4,17.4-7.4,17.4-12.5c0-3.7-1.2-5.8-3.6-9.3
			c-0.1-0.1-0.1-0.2-0.2-0.3c-0.6-1.3-1.9-3.9,0-5.8c0.7-0.6,1.3-0.8,2.1-0.8c3,0,11.1,3.9,17.7,8.5c6.6,4.6,14.5,11.7,14.5,19.5
			c0,5.7-4.5,13.7-14.4,13.7c-2.6,0-4-0.3-14.7-4.2c-4-1.5-7.4-2.2-10.3-2.2c-8.4,0-14.4,5.6-14.4,13.2c0,0.9,0.4,4.2,0.8,6.9
			c0.5,3.9,0.8,6.4,0.8,7.5c0,1.6-0.9,7.4-2.1,14.8c-0.3,2.2-0.6,4-0.8,4.9c-1.2,9.1-3,28.8-3,34.4c0,7.5,2,8.5,3.8,8.5
			c3.6,0,10-3.9,12.1-5.1l0.3-0.2c13.7-9,23.6-15.5,39.8-15.5c25.2,0,45.6,17.7,45.6,39.5C258.8,232.8,220.4,253.1,184.5,253.1z"/>
	</g>
	<g>
		<path class="st0" d="M348.4,204.5c-33.5,0-47.8-20.2-47.8-67.6c0-14.7,0.5-19.4,5.5-66c0.8-6.6,3.1-26.8,3.1-33.6
			c0-4-0.7-7.7-1.9-10.7c-0.2-0.5-0.7-1.6-1.2-2.9c-1.6-3.8-1.6-3.9-1.6-4.5c0-3.1,2.9-4.7,5.7-4.7c13.8,0,25.1,20.3,25.1,27
			c0,1.8-1.3,5.3-3.2,10.1c-0.6,1.5-1.3,3.2-1.4,3.7c-3.4,12.4-9.9,64.4-9.9,83.6c0,25.7,5.7,42.8,33.8,42.8
			c10.5,0,27.5-2.1,48.6-12.1c1.4-0.7,5.2-2.7,9.3-4.9c13-7,13.3-7,14.2-7c2,0,3.5,1.5,3.5,3.5C430.2,166.3,393.7,204.5,348.4,204.5
			z"/>
	</g>
	<g>
		<path class="st0" d="M499.4,203.2c-26.1,0-41.1-10.9-41.1-29.9c0-11.5,8.5-33.2,40.5-33.2c7.3,0,11.1,0.8,18.7,2.3l0.6,0.1
			c5.3,1.1,6.9,1.1,8.2,1.1c2.7,0,2.7-0.9,2.7-1.8c0-3.2-2.7-11.6-8.6-23.1l-0.5-0.9c-1-2-1.8-3.6-2.2-4.1c0,0-0.1,0-0.1,0
			c-0.8,0.1-5.5,1.3-7.4,1.9c-1,0.3-1.8,0.5-2.2,0.6c-7.8,1.9-14.6,3-24.2,3c-11.5,0-20.6-1.4-27.6-8.1c-3.5-3.5-5.4-7.9-5.4-10.1
			c0-2.7,2.1-4.3,4.1-4.3c1.2,0,2.4,0.7,5.4,2.6c0.7,0.4,1.6,1,1.8,1.1c5.5,2.5,12.1,3.7,19.7,3.7c12.2,0,23.5-3.2,27.4-4.8
			c-2.2-3.9-8.5-13.3-10.7-15.2c-0.4,0.1-1.1,0.2-1.9,0.3c-4.7,0.7-9,1.4-10.4,1.4c-16,0-29.3-11.1-29.3-16.7c0-1.9,1.5-3.9,3.9-3.9
			c0.8,0,1.9,0.3,5,1.6c0.4,0.2,0.7,0.3,0.8,0.3c6.3,2.1,8.4,2.6,12.8,2.6c3.1,0,6.4-0.4,8.3-0.9c-2.9-4.2-10.9-14.4-17.8-17.8
			l-1.8-0.8c-4.4-2.1-6-2.9-6-5.6c0-3.7,5.2-7.7,10-7.7c4.5,0,17.7,2.4,19.9,9.9c2.8,9.9,6.9,16.7,8.5,18.5c1-0.2,3.3-1,5.8-2.6
			l0.4-0.2c3.8-2.3,4.8-2.9,7.8-2.9c5.2,0,9,3.6,9,8.3c0,4.1-3.2,9.6-10.1,11.9c-0.4,0.1-1.4,0.5-2.2,0.9c2.7,4.4,7.4,11.4,9.2,13.2
			c1.3-0.4,3.7-1.8,4.2-2.7c-0.2-0.3-0.5-0.8-0.8-1.1c-1-1.4-1.7-2.4-1.7-3.5c0-2.2,1.4-3.6,4.3-4.2l0.3-0.1c0.1,0,0.2-0.1,0.4-0.1
			l6-0.5c3.5-0.3,5.5-0.5,6.4-0.5c8.2,0,14,4.5,14,11c0,5.3-3.2,9.9-18.9,15.6c-0.8,0.3-2.7,0.9-3.8,1.4c0.7,1.3,2.7,4.4,5.6,9.1
			c9.2,14.3,12.9,23.6,12.9,32.1c0,9.4-7.3,15.9-13.8,15.9c-5.6,0-7.3-1.1-20.1-10l-0.3-0.2c-7-4.9-13.1-5.5-17.7-5.5
			c-17.2,0-23.6,11-23.6,17.9c0,11.9,14,13.2,20,13.2c1.5,0,6-0.4,9.9-0.7c4.2-0.4,7.8-0.7,9.2-0.7c5.8,0,11.6,2.9,11.6,9.4
			C524.7,202.2,505.3,203.2,499.4,203.2z"/>
	</g>
	<g>
		<path class="st0" d="M614.5,220.1c-3.9,0-8.5-1.5-8.5-8.7c0-0.6,0.4-5.6,1.2-16.9c0.6-8.1,1.3-16.6,1.4-18.7
			c0.5-7.2,0.5-12.8,0.5-65c-1.7,1.8-4,4.3-6.2,6.7c-15.5,17-19.6,20.8-22.2,20.8c-1.5,0-2.6-1.2-2.6-2.8c0-1.4,0.4-2.1,2.9-6.6
			c17.4-30.3,33.7-58.8,40-75.6l0.2-0.4c1.7-4.7,2.6-7,5.6-7c2.5,0,16.4,7,20.2,11.8c1.3,1.6,1.8,3.1,1.5,4.5
			c-0.3,1.6-1.9,2.7-5.2,4.8c-0.9,0.6-2.3,1.5-2.7,1.9c-2,2-15.3,19.7-16.7,23c0.2,0.6,1.7,1.2,2.8,1.7c3.1,1.3,7.1,3,7.1,6.7
			c0,1.5-1.2,2.6-3.3,4.3c-0.5,0.5-1,0.9-1.2,1.1c-0.1,0.1-0.1,0.1-0.2,0.3c-1.4,1.4-1.4,2.2-1.4,14.9c0,5.7,0.1,22.4,0.2,39.6
			c0.1,18.2,0.2,36.9,0.2,43.7C628.2,219.9,615,220.1,614.5,220.1z M744.2,218.9c-4.2,0-6.2-2-9.1-6.5c-2.4-3.7-6.2-7.2-11.4-10.6
			c-0.2-0.1-0.4-0.2-0.5-0.3c-1.9-0.8-5-2.5-5-4.3c0-2,1.9-3.1,3.8-3.1c1.5,0,5.4,0.2,9.4,0.4c3.6,0.2,7.3,0.3,8.5,0.3
			c11.2,0,11.8,0,11.8-8.5c0-7.9,0-17.2,0-27.1c-0.1-21.3-0.1-45.5,0-62.6c0-6.1-0.5-7.3-3.3-7.3c-0.5,0-2.9,0.2-4.6,0.4
			c-2.5,0.2-3.7,0.3-4.2,0.3c-2.2,0-3.4-1.5-4-2.4l-4.4-5.4c-0.3-0.4-0.5-0.6-0.7-0.8c-0.4-0.5-1-1.1-1-2.4c0-1.6,1.5-2.8,3.3-2.8
			c0,0,1,0.1,2.4,0.2c5.7,0.4,20.9,1.5,24.3,1.5c9.4,0,9.9-0.5,10.6-1.2c0.3-0.3,1.3-1.7,2.1-2.8c4.4-6,6-7.8,8-7.8
			c4.6,0,17.5,12.9,17.5,17.5c0,5.2-3.1,5.2-16.3,5.2h-4.7c-4,0-5.2,0.9-5.2,6.6c0,7.6,0.1,28.7,0.2,49.2
			c0.1,19.5,0.2,38.6,0.2,45.1c0,6.3,0,19.3-14.4,25.6l-0.4,0.1C755.3,216.4,749.1,218.9,744.2,218.9z M649.9,205.2
			c-4.8,0-7.1-5.5-10-12.6c-0.3-0.7-0.9-2.3-1.7-4.2c-3.8-9.1-3.9-9.7-3.9-10.4c0-2.6,1.7-4.5,4-4.5c0.7,0,1.7,0.2,4.2,0.9
			c0.5,0.1,0.9,0.2,1.1,0.3c3,0.7,6.7,0.9,22.4,0.9c8.8,0,8.8-0.1,9.4-1.6c0.1-0.3,0.6-2.7,0.6-17.6c0-13,0-13-4-13
			c-4.3,0-16.9,0.2-20.8,0.7c-0.1,0-0.2,0-0.3,0c-0.2,0-0.7,0.1-1.3,0.2c-1.1,0.2-1.7,0.3-2,0.3c-2.3,0-3.4-1.6-4-2.6l-4.6-5.3
			c-1.2-1.5-1.5-1.9-1.5-3c0-1.7,1.5-3.1,3.3-3.1c2.3,0,8.5,0.4,15.1,0.8c6.7,0.4,13.7,0.9,16.1,0.9c3.9,0,4,0,4-16.3
			c0-1.1-0.2-4.6-0.5-7.8c-0.2-3.5-0.5-6.8-0.5-8.1c0-4.7,3.1-5.4,5-5.4c0.2,0,23.2,4.2,23.2,11.6c0,1.5-1.2,2.9-3.8,5.7
			c-0.8,0.8-1.9,2.1-2.1,2.5c-0.5,1-1.2,2.3-1.2,13.8c0,3.8,1.5,4,4.3,4c6.1,0,7.7-0.4,8.3-1c0.4-0.4,1.3-1.4,2.1-2.2
			c5-5.4,7.5-7.7,9.7-7.7c4.4,0,16.8,11.2,16.8,16.3c0,1.7-0.7,3.9-4.3,4.9c-2.1,0.8-4.3,0.8-11.5,0.8h-20.8c-5.2,0-5.2,0-5.2,22.5
			c0,8.5,0.2,8.5,3.1,8.5c3.1,0,13.1-0.9,21.9-1.6c7.6-0.7,14.2-1.2,16.2-1.2c2.3,0,3.5,1.6,3.5,3.1c0,2.3-3.1,3.8-5.6,4.6
			c-21.9,8.8-37.2,11.7-65,17.1l-2.5,0.5c-7.6,1.4-9,3-10,4.2C654.8,203.4,652.9,205.2,649.9,205.2z M646.1,96c-2.3,0-3.4-1.6-4-2.6
			l-4.6-5.3c-1.2-1.5-1.5-1.9-1.5-3c0-1.7,1.5-3.1,3.3-3.1c2.3,0,8.6,0.4,15.3,0.8c6.8,0.4,13.9,0.9,16.4,0.9c3.9,0,4.3,0,4.3-13.7
			c0-20.1-0.2-20.1-3.8-20.1c-1.6,0-7.6,0.4-12.3,0.7c-4.7,0.3-7.6,0.5-8.5,0.5c-2.2,0-3.4-1.5-4-2.4l-4.4-5.4
			c-0.8-0.8-1.7-1.7-1.7-3.2c0-0.3,0.1-2.8,3.3-2.8c1.9,0,7.4,0.3,13.2,0.7c6,0.4,12.1,0.7,14.3,0.7c3.6,0,4-1.1,4-9.7
			c0-5.3,0-11.4-0.9-16.4c-0.1-0.3-0.3-1.2-0.6-2.2c-0.9-3.2-1.5-5.3-1.5-6.5c0-1.9,1.5-3.8,4.7-3.8c0.3,0,26.5,3.7,26.5,11.8
			c0,2.6-1.6,3.9-4.4,6.3c-3.1,2.4-3.2,2.8-3.2,16.6c0,3.5,0.1,3.8,2.6,3.8c3.3,0,4.6-0.7,5-0.9c0.2-0.2,0.8-0.8,1.6-1.5
			c5-4.9,7.5-7,9.5-7c4.4,0,16.6,10.4,16.6,15.1c0,5.4-6,5.4-15.1,5.4h-15.1c-5.2,0-5.2,0-5.2,18.2c0,15.6,0.1,15.6,3.3,15.6
			c5.6,0,6.7-0.6,8.5-3l0.3-0.4c4.5-6.2,5.4-7.5,8.7-7.5c4.5,0,19.2,12,19.2,16.8c0,5.2-3.1,5.2-16.3,5.2h-42.1
			c-10.1,0-17.5,0.2-21.9,0.4c-1.7,0.1-3,0.1-3.8,0.1C650,95.6,646.9,96,646.1,96z M588,69.5c-1.6,0-3.1-1.5-3.1-3.1
			c0-0.4,0.1-0.9,0.4-1.2c0,0,11.6-18.7,13.5-21.7l0.6-1c4.4-7.4,17.7-30.1,19-35c1.1-4.9,1.7-7.4,5.6-7.4c2.2,0,5.1,1,10.5,3.5
			l0.6,0.3c8.5,4.4,12.8,6.6,12.8,10.6c0,3.8-3.3,4.5-7.1,5.4c-1,0.3-3.2,2.6-6.6,6.2C629.2,31.5,592.7,69.5,588,69.5z M739.5,33.3
			c-1.7,0-2.7-1-3.8-2.1l-4.6-5.6c-1.1-1.3-1.5-1.9-1.5-3.2c0-0.3,0.1-2.8,3.1-2.8c1.9,0,6.8,0.4,12,0.9c4.3,0.4,8.8,0.8,10.2,0.8
			c1.8,0,6.6,0,7.8-1.2c0.5-0.5,1.7-2,2.7-3.2c4.1-5.3,6.1-7.4,8.2-7.4c5.3,0,17.3,12.9,17.3,17.3c0,1.4-0.6,4-4.7,4.9
			c-2.1,0.5-5,0.5-11.4,0.5h-10.4c-6.4,0-13.2,0.2-19.7,0.7c-0.5,0-1.4,0.1-2.4,0.2C741.1,33.2,739.9,33.3,739.5,33.3z"/>
	</g>
	<g>
		<path class="st0" d="M832.8,231.8c-15.6,0-17.3-1.3-17.3-4c0-2.2,1.5-2.8,10-4c50.4-7.9,78.1-18.6,98.7-38.2l0.2-0.2
			c2.3-2.3,6.1-6.1,9.5-15.3c0.8-2.3,1.5-4.4,4.7-4.4c1.8,0,2.7,0.6,7.9,4.7l3,2.3c7,5.5,9.3,7.6,9.3,11.1c0,4.4-2.7,5-7.6,6
			c-2.8,0.5-3.7,1.1-14,9.2l-0.9,0.7C895.4,231.8,851.5,231.8,832.8,231.8z M882.9,206.8c-1.2,0-2.5-0.3-3.7-0.8
			c-1.4-0.7-2.4-2.2-4.4-5.8c-0.6-1-1.4-2.4-1.7-2.7c-0.7-0.7-4.3-3.3-6.5-4.9c-4.4-3.2-4.4-3.2-4.4-4.5c0-2,1.8-3.2,3.6-3.2
			c0.2,0,1.6,0.1,3.4,0.2c2.8,0.2,6.9,0.4,8,0.4c10.1,0,10.1-1.2,10.3-6.7c0-2.9,0.1-6.4,0.1-10c0.1-3.6,0.1-7.3,0.1-10.4
			c0-25.4-0.9-25.4-5-25.4h-39.1c-3.9,0-18.8,0.2-25.6,0.6c-0.4,0-1.1,0.1-1.9,0.2c-1.1,0.1-2.3,0.2-2.8,0.2c-1.9,0-3-1.4-3.5-2.2
			l-4-4.6c-1-1.2-1.4-1.7-1.4-3c0-0.3,0.1-2.8,3.2-2.8c2,0,7.7,0.3,13.7,0.7c6.3,0.4,12.8,0.7,15.1,0.7c2,0,3-0.2,3-4.4V89.4
			c0-5.5,0-15.8-0.8-20.7c0,0,0,0,0,0c0,0-0.1-0.4-0.3-0.9c-1-3.4-1.4-5.1-1.4-6.1c0-1.7,1-3.6,3.8-3.6c0.2,0,23.2,2.5,23.2,9.1
			c0,0.6,0,1.6-0.5,2.5c-0.1,0.2-0.3,0.4-0.4,0.6c-0.2,0.2-0.6,0.6-1.2,1.1c-0.7,0.6-2.4,2.1-2.7,2.6c-0.9,1.8-0.9,8.2-0.9,43.6
			c0,5.4,0.3,5.4,3.8,5.4h22.1c3.7,0,3.8-0.6,3.8-4.2c0-5.7-0.1-11.5-0.1-17.3c-0.1-5.9-0.1-11.8-0.1-17.7c0-12.5,0-20-1.2-25.9
			c-0.1-0.8-0.8-3.3-1.3-5.1c-1-3.4-1.2-4.3-1.2-5c0-2.6,2.3-4.4,5.8-4.4c5.4,0,21,3.8,21,9.7c0,1.4-1,2.5-3.1,4.5
			c-0.4,0.4-1,1-1.3,1.3c-0.5,1.4-0.5,4.4-0.5,18.5c0,3.8,0,4.8,4,4.8h21.3c7.2,0,8.1-0.4,8.6-1c0.2-0.3,1-1.5,1.6-2.5
			c4.2-6.9,6.4-9.7,9-9.7c4.1,0,19.5,13.8,19.5,18.5c0,5-3.1,5-13.4,5h-46.6c-4,0-4,0.9-4,4v22.1c0,4.4,0.2,4.4,4.2,4.4h37.4
			c7.4,0,9.2-0.4,9.6-0.6c0.5-0.3,2.4-2.6,3.7-4.3c4.7-5.8,7.2-8.6,9.8-8.6c4,0,19.5,14.5,19.5,18.3c0,5.2-5.5,5.2-13.2,5.2h-68.6
			c2.2,1.2,4,2.7,4.5,5.4c0.5,2.5-1.1,3.7-3.7,5.8c-0.7,0.5-2.8,2.9-2.8,14.9c0,0.5,0.1,4.1,0.2,8.3c0.1,6,0.3,13.3,0.3,14.8
			c0,10.1-3.3,16.4-10.6,20.7C891.5,205.4,886.7,206.8,882.9,206.8z M807.2,195.8c-3.1,0-3.2-2.5-3.2-2.8c0-1.5,0-1.8,11.7-10.8
			c2.8-2.1,5.9-4.6,6.6-5.2c19.3-20.1,22.8-25,26.4-37c0-0.1,0.1-0.3,0.2-0.4c0.5-1,1.7-3.8,4.4-3.8c2,0,6.9,3.1,10.8,6
			c8,5.8,9.7,7.1,9.7,10.3c0,4.3-4.1,5-6.2,5.4c-2.8,0.5-4.6,2.2-6.8,4.1l-0.4,0.4c-11.8,11-24.8,22.3-43.4,30.5
			C816.9,192.6,808.9,195.8,807.2,195.8z M974.5,186.2c-7.1,0-9.3-3.7-13.7-11c-0.9-1.4-12.8-17-27-28.2l-1.1-0.8
			c-2.3-1.9-3.3-2.6-3.3-4.5c0-0.7,0.3-3.2,4.4-3.2c3.8,0,13.1,2.8,17.5,4.7c21.7,9.4,33.1,24,33.1,33.7
			C984.4,182.5,980.4,186.2,974.5,186.2z"/>
	</g>
	<g>
		<path class="st0" d="M1057.9,224.8c-27.1,0-42.6-11.3-42.6-31c0-11.9,8.8-34.5,42-34.5c7.6,0,11.6,0.8,19.5,2.4l0.6,0.1
			c5.5,1.2,7.2,1.2,8.5,1.2c3,0,3-1,3-1.9c0-3.4-2.8-12.1-8.9-24.1l-0.5-1c-1.1-2.1-2-3.8-2.4-4.3c0,0-0.1,0-0.1,0
			c-0.9,0.1-5.7,1.4-7.7,2c-1,0.3-1.9,0.5-2.3,0.6c-8.1,1.9-15.2,3.1-25.1,3.1c-12,0-21.4-1.4-28.6-8.4c-3.7-3.7-5.6-8.1-5.6-10.5
			c0-2.8,2.1-4.4,4.2-4.4c1.2,0,2.5,0.8,5.5,2.7c0.7,0.4,1.6,1.1,1.9,1.2c5.7,2.6,12.6,3.9,20.6,3.9c12.8,0,24.7-3.4,28.7-5.1
			c-2.3-4-8.9-14-11.3-15.9c-0.4,0.1-1.2,0.2-2.1,0.3c-4.9,0.8-9.4,1.4-10.9,1.4c-16.6,0-30.4-11.4-30.4-17.3c0-2,1.5-4,4-4
			c0.8,0,1.9,0.3,5.2,1.6c0.4,0.2,0.7,0.3,0.9,0.3c6.6,2.2,8.7,2.7,13.4,2.7c3.4,0,6.8-0.5,8.8-0.9c-3-4.4-11.4-15.1-18.6-18.7
			l-1.8-0.9c-4.7-2.2-6.2-3-6.2-5.7c0-3.8,5.4-7.9,10.3-7.9c4.7,0,18.3,2.4,20.7,10.3c2.9,10.4,7.2,17.5,8.9,19.3
			c1.1-0.2,3.5-1,6.1-2.8l0.4-0.3c3.9-2.4,5-3,8-3c5.3,0,9.3,3.7,9.3,8.5c0,4.2-3.3,9.9-10.4,12.3c-0.5,0.2-1.5,0.6-2.4,1
			c2.8,4.6,7.8,12,9.7,13.9c1.4-0.5,4-1.9,4.5-2.9c-0.2-0.3-0.6-0.8-0.8-1.2c-1-1.4-1.8-2.5-1.8-3.6c0-2.2,1.5-3.7,4.4-4.3l0.3-0.1
			c0.1,0,0.2-0.1,0.4-0.1l6.3-0.5c3.7-0.3,5.7-0.5,6.6-0.5c8.5,0,14.4,4.7,14.4,11.4c0,4.4-1.5,9.6-19.6,16.1
			c-0.9,0.3-2.9,1-4.1,1.5c0.7,1.4,2.8,4.6,5.9,9.5c9.6,14.8,13.5,24.5,13.5,33.4c0,9.7-7.5,16.5-14.2,16.5
			c-5.8,0-7.5-1.2-20.8-10.4l-0.3-0.2c-7.3-5.1-13.7-5.7-18.5-5.7c-17.9,0-24.6,11.5-24.6,18.7c0,12.4,14.6,13.8,20.9,13.8
			c1.6,0,6.2-0.4,10.3-0.7c4.3-0.4,8.1-0.7,9.5-0.7c6,0,12,3,12,9.7C1084.2,223.8,1064.1,224.8,1057.9,224.8z"/>
	</g>
</g>
</svg>
